<?xml version="1.0" encoding="utf-8"?>
<!-- Generator: Adobe Illustrator 21.0.2, SVG Export Plug-In . SVG Version: 6.00 Build 0)  -->
<!DOCTYPE svg PUBLIC "-//W3C//DTD SVG 1.1//EN" "http://www.w3.org/Graphics/SVG/1.1/DTD/svg11.dtd">
<svg version="1.1" xmlns="http://www.w3.org/2000/svg" xmlns:xlink="http://www.w3.org/1999/xlink" x="0px" y="0px"
	 viewBox="0 0 1000 1000" style="enable-background:new 0 0 1000 1000;" xml:space="preserve">
<style type="text/css">
	.st0{display:none;fill:url(#background_1_);}
	.st1{fill:#FFFFFF;stroke:#FFFFFF;stroke-miterlimit:10;}
</style>
<g id="design">
	<radialGradient id="background_1_" cx="500" cy="500" r="500" gradientUnits="userSpaceOnUse">
		<stop  offset="0" style="stop-color:#3C3795"/>
		<stop  offset="0.2377" style="stop-color:#5C3695"/>
		<stop  offset="0.5712" style="stop-color:#843694"/>
		<stop  offset="0.837" style="stop-color:#9C3594"/>
		<stop  offset="1" style="stop-color:#A53594"/>
	</radialGradient>
	<path id="background" class="st0" d="M750,1000H250C112.5,1000,0,887.5,0,750V250C0,112.5,112.5,0,250,0h500
		c137.5,0,250,112.5,250,250v500C1000,887.5,887.5,1000,750,1000z"/>
	<path id="logo" class="st1" d="M909.7,835.6V26.2c0-3.3-2.7-5.9-5.9-5.9h-81.9c-2,0-3.8,1-4.9,2.7L540.7,438.7L263.8,22.9
		c-1.1-1.7-3-2.6-4.9-2.6H96.4c-3.3,0-5.9,2.7-5.9,5.9v746.4c0,3.3,2.7,5.9,5.9,5.9h161.7c3.3,0,5.9-2.7,5.9-5.9v-398l272.2,319.9
		c1.1,1.3,2.8,2.1,4.5,2.1c0,0,0,0,0,0c1.7,0,3.4-0.8,4.5-2.1l271.2-319.9v391.8c-22.4,0.8-46.7,6.5-70.5,17.1
		c-34.5,15.3-64.1,38.7-83.3,65.9c-19.7,27.9-26.3,56.7-18.5,81c5.7,17.9,18.8,31.8,37.7,40.3c13.6,6.1,29.6,9.2,46.9,9.2
		c23.9,0,50.2-5.8,75.9-17.2c34.5-15.3,64.1-38.7,83.3-65.9C902.6,876.2,910,855.1,909.7,835.6z"/>
</g>
<g id="guides">
</g>
</svg>
